<?xml version="1.0" ?><svg height="23px" version="1.1" viewBox="2 0 18 18" width="14px" xmlns="http://www.w3.org/2000/svg" xmlns:sketch="http://www.bohemiancoding.com/sketch/ns" xmlns:xlink="http://www.w3.org/1999/xlink"><title/><defs/><g fill="none" fill-rule="evenodd" id="miu" stroke="none" stroke-width="1"><path d="M4.12998292,6.41811573 L3.0010366,4.36896396 C3.0010366,4.36896396 8.72843291,2.27444863 13.9002275,2.27444943 C19.0720221,2.27445018 24.7994184,4.36896396 24.7994184,4.36896396 L23.6704721,6.41811573 C23.4575083,6.34472374 19.1938382,4.60253533 13.9002273,4.60253533 C8.60661646,4.60253542 4.38603772,6.32987365 4.12998292,6.41811573 Z M23.2500919,7.18114843 L13.9002275,24.1520981 L4.55036319,7.18114843 C6.57023765,6.50631201 10.2745803,5.46493994 13.9002275,5.46493985 C17.5258747,5.46493985 21.2302173,6.50631196 23.2500919,7.18114841 L23.2500919,7.18114843 L23.2500919,7.18114843 Z M11.7203893,14.1248424 C12.4427242,14.1248424 13.0282922,13.5126577 13.0282922,12.7574894 C13.0282922,12.0023211 12.4427242,11.3901364 11.7203893,11.3901364 C10.9980544,11.3901364 10.4124864,12.0023211 10.4124864,12.7574894 C10.4124864,13.5126577 10.9980544,14.1248424 11.7203893,14.1248424 L11.7203893,14.1248424 Z M13.0282922,10.4785677 C13.7506271,10.4785677 14.3361951,9.8663829 14.3361951,9.11121463 C14.3361951,8.35604635 13.7506271,7.74386159 13.0282922,7.74386159 C12.3059573,7.74386159 11.7203893,8.35604635 11.7203893,9.11121463 C11.7203893,9.8663829 12.3059573,10.4785677 13.0282922,10.4785677 L13.0282922,10.4785677 Z M14.7721628,18.2269016 C15.4944976,18.2269016 16.0800657,17.6147168 16.0800657,16.8595485 C16.0800657,16.1043802 15.4944976,15.4921955 14.7721628,15.4921955 C14.0498279,15.4921955 13.4642599,16.1043802 13.4642599,16.8595485 C13.4642599,17.6147168 14.0498279,18.2269016 14.7721628,18.2269016 L14.7721628,18.2269016 Z M17.8239362,11.3901364 C18.5462711,11.3901364 19.1318391,10.7779516 19.1318391,10.0227833 C19.1318391,9.26761504 18.5462711,8.65543028 17.8239362,8.65543028 C17.1016013,8.65543028 16.5160333,9.26761504 16.5160333,10.0227833 C16.5160333,10.7779516 17.1016013,11.3901364 17.8239362,11.3901364 L17.8239362,11.3901364 Z" fill="#ffffff" id="food_pizza_fastfood_glyph" transform="translate(14.000000, 13.276279) rotate(-30.000000) translate(-14.000000, -13.276279) "/></g></svg>
